<?xml version="1.0" encoding="UTF-8"?>
<!DOCTYPE svg PUBLIC "-//W3C//DTD SVG 1.1//EN" "http://www.w3.org/Graphics/SVG/1.1/DTD/svg11.dtd">
<!-- Creator: CorelDRAW -->
<svg xmlns="http://www.w3.org/2000/svg" xml:space="preserve" width="1.70666in" height="1.70666in" version="1.1" style="shape-rendering:geometricPrecision; text-rendering:geometricPrecision; image-rendering:optimizeQuality; fill-rule:evenodd; clip-rule:evenodd"
viewBox="0 0 1706.66 1706.66"
 xmlns:xlink="http://www.w3.org/1999/xlink"
 xmlns:xodm="http://www.corel.com/coreldraw/odm/2003">
 <defs>
  <style type="text/css">
   <![CDATA[
    .fil0 {fill:black}
   ]]>
  </style>
 </defs>
 <g id="Layer_x0020_1">
  <metadata id="CorelCorpID_0Corel-Layer"/>
  <path class="fil0" d="M1427.98 1706.66l-1243.05 0c-26.33,0 -26.33,-40 0,-40l1243.05 0c114.86,0 208.33,-93.47 208.33,-208.33l0 -1355.27c0,-34.72 -28.33,-63.06 -63.06,-63.06l-1110 0c-34.72,0 -63.06,28.33 -63.06,63.06l0 585.14c0,26.36 -40,26.36 -40,0l0 -585.14c0,-56.81 46.25,-103.06 103.06,-103.06l1110.13 0c56.81,0 103.06,46.25 103.06,103.06l0 1355.27c0,136.94 -111.39,248.33 -248.47,248.33z"/>
  <path class="fil0" d="M215.21 1706.66c-102.08,0 -185,-96.53 -185,-215.28l0 -803.19c0,-26.36 40,-26.36 40,0l0 803.19c0,96.67 65.14,175.28 145,175.28 79.86,0 145,-78.61 145,-175.28l0 -803.19c0,-26.36 40,-26.36 40,0l0 803.19c0,118.75 -83.06,215.28 -185,215.28z"/>
  <path class="fil0" d="M215.21 1545.69c-11.11,0 -20,-9.03 -20,-20l0 -950c0,-26.36 40,-26.36 40,0l0 950c0,11.11 -9.03,20 -20,20z"/>
  <path class="fil0" d="M1484.79 590.69l-443.33 0c-10.97,0 -20,-8.89 -20,-20l0 -304.58c0,-11.11 9.03,-20 20,-20l443.33 0c10.97,0 20,8.89 20,20l0 304.58c0,11.11 -8.89,20 -20,20zm-423.33 -40l403.33 0 0 -264.58 -403.33 0 0 264.58z"/>
  <path class="fil0" d="M856.31 292.64l-319.44 0c-26.36,0 -26.36,-40 0,-40l319.44 0c26.27,0 26.43,40 0,40z"/>
  <path class="fil0" d="M856.31 438.47l-319.44 0c-26.36,0 -26.36,-40 0,-40l319.44 0c26.27,0 26.43,40 0,40z"/>
  <path class="fil0" d="M811.18 584.3l-274.31 0c-26.36,0 -26.36,-40 0,-40l274.31 0c26.36,0 26.36,40 0,40z"/>
  <path class="fil0" d="M980.2 1093.88l-443.33 0c-11.11,0 -20,-9.03 -20,-20l0 -304.58c0,-11.11 8.89,-20 20,-20l443.33 0c10.97,0 20,8.89 20,20l0 304.58c0,10.97 -8.89,20 -20,20zm-423.33 -40l403.33 0 0 -264.58 -403.33 0 0 264.58z"/>
  <path class="fil0" d="M1484.79 1087.49l-319.44 0c-26.3,0 -26.3,-40 0,-40l319.44 0c26.24,0 26.39,40 0,40z"/>
  <path class="fil0" d="M1484.79 941.66l-319.44 0c-26.3,0 -26.3,-40 0,-40l319.44 0c26.24,0 26.39,40 0,40z"/>
  <path class="fil0" d="M1484.79 795.69l-274.31 0c-26.33,0 -26.33,-40 0,-40l274.31 0c26.27,0 26.43,40 0,40z"/>
  <path class="fil0" d="M1462.29 1276.38l-906.24 0c-26.33,0 -26.33,-40 0,-40l906.24 0c26.3,0 26.3,40 0,40z"/>
  <path class="fil0" d="M1397.98 1460.41l-777.77 0c-26.33,0 -26.33,-40 0,-40l777.77 0c26.23,0 26.39,40 0,40z"/>
 </g>
</svg>
